<svg width="30" height="31" viewBox="0 0 30 31" fill="none" xmlns="http://www.w3.org/2000/svg">
<path opacity="0.5" d="M18 20C18.425 20 18.7938 19.8438 19.1063 19.5312C19.4188 19.2188 19.575 18.85 19.575 18.425C19.575 18 19.4188 17.6313 19.1063 17.3188C18.7938 17.0063 18.425 16.85 18 16.85C17.575 16.85 17.2063 17.0063 16.8938 17.3188C16.5813 17.6313 16.425 18 16.425 18.425C16.425 18.85 16.5813 19.2188 16.8938 19.5312C17.2063 19.8438 17.575 20 18 20ZM18 15.2C18.275 15.2 18.5312 15.1 18.7688 14.9C19.0063 14.7 19.15 14.4375 19.2 14.1125C19.25 13.8125 19.3563 13.5375 19.5188 13.2875C19.6813 13.0375 19.975 12.7 20.4 12.275C21.15 11.525 21.65 10.9188 21.9 10.4563C22.15 9.99375 22.275 9.45 22.275 8.825C22.275 7.7 21.8813 6.78125 21.0938 6.06875C20.3063 5.35625 19.275 5 18 5C17.175 5 16.425 5.1875 15.75 5.5625C15.075 5.9375 14.5375 6.475 14.1375 7.175C13.9875 7.425 13.975 7.6875 14.1 7.9625C14.225 8.2375 14.4375 8.4375 14.7375 8.5625C15.0125 8.6875 15.2813 8.7 15.5438 8.6C15.8063 8.5 16.025 8.325 16.2 8.075C16.425 7.75 16.6875 7.50625 16.9875 7.34375C17.2875 7.18125 17.625 7.1 18 7.1C18.6 7.1 19.0875 7.26875 19.4625 7.60625C19.8375 7.94375 20.025 8.4 20.025 8.975C20.025 9.325 19.925 9.65625 19.725 9.96875C19.525 10.2812 19.175 10.675 18.675 11.15C17.95 11.775 17.4875 12.2563 17.2875 12.5938C17.0875 12.9313 16.9625 13.425 16.9125 14.075C16.8875 14.375 16.9813 14.6375 17.1938 14.8625C17.4062 15.0875 17.675 15.2 18 15.2ZM9 24.5C8.175 24.5 7.46875 24.2063 6.88125 23.6188C6.29375 23.0312 6 22.325 6 21.5V3.5C6 2.675 6.29375 1.96875 6.88125 1.38125C7.46875 0.79375 8.175 0.5 9 0.5H27C27.825 0.5 28.5313 0.79375 29.1188 1.38125C29.7063 1.96875 30 2.675 30 3.5V21.5C30 22.325 29.7063 23.0312 29.1188 23.6188C28.5313 24.2063 27.825 24.5 27 24.5H9ZM3 30.5C2.175 30.5 1.46875 30.2063 0.88125 29.6188C0.29375 29.0313 0 28.325 0 27.5V8C0 7.575 0.14375 7.21875 0.43125 6.93125C0.71875 6.64375 1.075 6.5 1.5 6.5C1.925 6.5 2.28125 6.64375 2.56875 6.93125C2.85625 7.21875 3 7.575 3 8V27.5H22.5C22.925 27.5 23.2812 27.6438 23.5688 27.9313C23.8563 28.2188 24 28.575 24 29C24 29.425 23.8563 29.7813 23.5688 30.0688C23.2812 30.3563 22.925 30.5 22.5 30.5H3Z" fill="#0046C0"/>
</svg>
