<svg width="52" height="71" viewBox="0 0 52 71" fill="none" xmlns="http://www.w3.org/2000/svg">
<path d="M32.2166 66.7826V50.5036L25.3793 43.9919L22.8561 55.2245C22.639 56.0927 22.1642 56.7574 21.4317 57.2187C20.6991 57.6799 19.8987 57.8292 19.0305 57.6664L2.91423 54.4105C1.99175 54.2478 1.28633 53.7865 0.797954 53.0268C0.309582 52.2671 0.146791 51.426 0.309582 50.5036C0.472372 49.5811 0.933613 48.8621 1.6933 48.3466C2.45299 47.8311 3.29408 47.6819 4.21656 47.8989L16.5887 50.5036L21.798 24.1315L15.9375 26.4105V34.2245C15.9375 35.147 15.6255 35.9202 15.0014 36.5443C14.3774 37.1683 13.6042 37.4803 12.6817 37.4803C11.7592 37.4803 10.9859 37.1683 10.3619 36.5443C9.73788 35.9202 9.42586 35.147 9.42586 34.2245V24.2943C9.42586 23.6431 9.60222 23.0598 9.95493 22.5443C10.3076 22.0288 10.7824 21.6354 11.3793 21.364L22.2863 16.6431C24.1856 15.8292 25.5828 15.3001 26.4782 15.0559C27.3735 14.8117 28.2011 14.6896 28.9607 14.6896C30.1003 14.6896 31.1584 14.9881 32.1352 15.585C33.1119 16.1819 33.8987 16.9687 34.4956 17.9454L37.7514 23.1547C38.891 24.9997 40.3697 26.6005 42.1875 27.9571C44.0053 29.3136 46.108 30.209 48.4956 30.6431C49.4181 30.8059 50.1914 31.2129 50.8154 31.864C51.4394 32.5152 51.7514 33.302 51.7514 34.2245C51.7514 35.147 51.4394 35.9067 50.8154 36.5036C50.1914 37.1005 49.4452 37.3447 48.577 37.2361C45.6468 36.802 42.9065 35.8931 40.3561 34.5094C37.8057 33.1257 35.6352 31.4028 33.8445 29.3408L31.891 39.1082L37.7514 44.6431C38.077 44.9687 38.3212 45.335 38.484 45.7419C38.6468 46.1489 38.7282 46.5695 38.7282 47.0036V66.7826C38.7282 67.7051 38.4162 68.4784 37.7921 69.1024C37.1681 69.7264 36.3949 70.0385 35.4724 70.0385C34.5499 70.0385 33.7766 69.7264 33.1526 69.1024C32.5286 68.4784 32.2166 67.7051 32.2166 66.7826ZM33.8445 13.0617C32.0538 13.0617 30.5208 12.4241 29.2456 11.1489C27.9704 9.87372 27.3328 8.34078 27.3328 6.55008C27.3328 4.75938 27.9704 3.22644 29.2456 1.95124C30.5208 0.676049 32.0538 0.0384521 33.8445 0.0384521C35.6352 0.0384521 37.1681 0.676049 38.4433 1.95124C39.7185 3.22644 40.3561 4.75938 40.3561 6.55008C40.3561 8.34078 39.7185 9.87372 38.4433 11.1489C37.1681 12.4241 35.6352 13.0617 33.8445 13.0617Z" fill="#0046C7"/>
</svg>
