<svg width="82" height="71" viewBox="0 0 82 71" fill="none" xmlns="http://www.w3.org/2000/svg">
<path d="M52.9583 13.697C51.0792 13.697 49.4705 13.0283 48.1323 11.6909C46.7941 10.3535 46.125 8.74577 46.125 6.86772C46.125 4.98967 46.7941 3.38195 48.1323 2.04455C49.4705 0.707151 51.0792 0.0384521 52.9583 0.0384521C54.8375 0.0384521 56.4462 0.707151 57.7844 2.04455C59.1226 3.38195 59.7917 4.98967 59.7917 6.86772C59.7917 8.74577 59.1226 10.3535 57.7844 11.6909C56.4462 13.0283 54.8375 13.697 52.9583 13.697ZM36.9 30.7702L42.5375 36.6604C43.1639 37.2864 43.6337 37.9978 43.9469 38.7946C44.2601 39.5913 44.4167 40.445 44.4167 41.3555V56.3799C44.4167 57.3474 44.0892 58.1584 43.4344 58.8128C42.7795 59.4673 41.9681 59.7946 41 59.7946C40.0319 59.7946 39.2205 59.4673 38.5656 58.8128C37.9108 58.1584 37.5833 57.3474 37.5833 56.3799V42.7214L26.65 33.1604C25.8528 32.4775 25.3118 31.7661 25.0271 31.0263C24.7424 30.2864 24.6 29.4043 24.6 28.3799C24.6 27.3555 24.7566 26.4876 25.0698 25.7763C25.383 25.0649 25.9097 24.3393 26.65 23.5994L36.2167 14.0385C36.9569 13.2986 37.7399 12.7722 38.5656 12.4592C39.3913 12.1462 40.3167 11.9897 41.3417 11.9897C42.3667 11.9897 43.292 12.1462 44.1177 12.4592C44.9434 12.7722 45.7264 13.2986 46.4667 14.0385L52.9583 20.5263C54.1542 21.7214 55.4924 22.7315 56.9729 23.5567C58.4535 24.3819 60.1049 24.9653 61.9271 25.3067C62.8951 25.4775 63.6924 25.9043 64.3187 26.5872C64.9451 27.2702 65.2583 28.0954 65.2583 29.0628C65.2583 30.0303 64.9167 30.8271 64.2333 31.4531C63.55 32.0791 62.7243 32.3352 61.7562 32.2214C58.966 31.823 56.4035 31.0263 54.0687 29.8311C51.734 28.636 49.6556 27.1279 47.8333 25.3067L45.1 22.575L36.9 30.7702ZM17.0833 35.8921C21.9236 35.8921 25.9809 37.5283 29.2552 40.8006C32.5295 44.073 34.1667 48.1279 34.1667 52.9653C34.1667 57.8027 32.5295 61.8576 29.2552 65.1299C25.9809 68.4023 21.9236 70.0385 17.0833 70.0385C12.2431 70.0385 8.18576 68.4023 4.91146 65.1299C1.63715 61.8576 0 57.8027 0 52.9653C0 48.1279 1.63715 44.073 4.91146 40.8006C8.18576 37.5283 12.2431 35.8921 17.0833 35.8921ZM17.0833 64.9165C20.3292 64.9165 23.1337 63.7356 25.4969 61.3738C27.8601 59.012 29.0417 56.2092 29.0417 52.9653C29.0417 49.7214 27.8601 46.9185 25.4969 44.5567C23.1337 42.195 20.3292 41.0141 17.0833 41.0141C13.8375 41.0141 11.033 42.195 8.66979 44.5567C6.3066 46.9185 5.125 49.7214 5.125 52.9653C5.125 56.2092 6.3066 59.012 8.66979 61.3738C11.033 63.7356 13.8375 64.9165 17.0833 64.9165ZM64.9167 35.8921C69.7569 35.8921 73.8142 37.5283 77.0885 40.8006C80.3628 44.073 82 48.1279 82 52.9653C82 57.8027 80.3628 61.8576 77.0885 65.1299C73.8142 68.4023 69.7569 70.0385 64.9167 70.0385C60.0764 70.0385 56.0191 68.4023 52.7448 65.1299C49.4705 61.8576 47.8333 57.8027 47.8333 52.9653C47.8333 48.1279 49.4705 44.073 52.7448 40.8006C56.0191 37.5283 60.0764 35.8921 64.9167 35.8921ZM64.9167 64.9165C68.1625 64.9165 70.967 63.7356 73.3302 61.3738C75.6934 59.012 76.875 56.2092 76.875 52.9653C76.875 49.7214 75.6934 46.9185 73.3302 44.5567C70.967 42.195 68.1625 41.0141 64.9167 41.0141C61.6708 41.0141 58.8663 42.195 56.5031 44.5567C54.1399 46.9185 52.9583 49.7214 52.9583 52.9653C52.9583 56.2092 54.1399 59.012 56.5031 61.3738C58.8663 63.7356 61.6708 64.9165 64.9167 64.9165Z" fill="#0046C7"/>
</svg>
