<?xml version="1.0" standalone="no"?>
<!DOCTYPE svg PUBLIC "-//W3C//DTD SVG 20010904//EN"
 "http://www.w3.org/TR/2001/REC-SVG-20010904/DTD/svg10.dtd">
<svg version="1.0" xmlns="http://www.w3.org/2000/svg" 
height="24" viewBox="0 0 1920.000000 1080.000000"
 preserveAspectRatio="xMidYMid meet">

<g transform="translate(0.000000,1080.000000) scale(0.100000,-0.100000)"
fill="#000" stroke="none">
<path d="M1600 5400 l0 -3810 3810 0 3810 0 0 3810 0 3810 -3810 0 -3810 0 0
-3810z m6090 -5 l0 -2285 -2282 2 -2283 3 -3 2283 -2 2282 2285 0 2285 0 0
-2285z"/>
<path d="M4650 5400 l0 -760 760 0 760 0 0 760 0 760 -760 0 -760 0 0 -760z"/>
<path d="M9980 5400 l0 -3810 760 0 760 0 0 3810 0 3810 -760 0 -760 0 0
-3810z"/>
<path d="M13030 5400 l0 -3810 760 0 760 0 0 3810 0 3810 -760 0 -760 0 0
-3810z"/>
<path d="M16077 9203 c-4 -3 -7 -1718 -7 -3810 l0 -3803 765 0 765 0 0 3810 0
3810 -758 0 c-417 0 -762 -3 -765 -7z"/>
</g>
</svg>
