<svg width="35" height="36" viewBox="0 0 35 36" fill="none" xmlns="http://www.w3.org/2000/svg">
<path id="Vector" opacity="0.75" d="M6.7375 26.925C8.225 25.7875 9.8875 24.8906 11.725 24.2344C13.5625 23.5781 15.4875 23.25 17.5 23.25C19.5125 23.25 21.4375 23.5781 23.275 24.2344C25.1125 24.8906 26.775 25.7875 28.2625 26.925C29.2833 25.7292 30.0781 24.3729 30.6469 22.8562C31.2156 21.3396 31.5 19.7208 31.5 18C31.5 14.1208 30.1365 10.8177 27.4094 8.09062C24.6823 5.36354 21.3792 4 17.5 4C13.6208 4 10.3177 5.36354 7.59062 8.09062C4.86354 10.8177 3.5 14.1208 3.5 18C3.5 19.7208 3.78437 21.3396 4.35313 22.8562C4.92188 24.3729 5.71667 25.7292 6.7375 26.925ZM17.5 19.75C15.7792 19.75 14.3281 19.1594 13.1469 17.9781C11.9656 16.7969 11.375 15.3458 11.375 13.625C11.375 11.9042 11.9656 10.4531 13.1469 9.27187C14.3281 8.09062 15.7792 7.5 17.5 7.5C19.2208 7.5 20.6719 8.09062 21.8531 9.27187C23.0344 10.4531 23.625 11.9042 23.625 13.625C23.625 15.3458 23.0344 16.7969 21.8531 17.9781C20.6719 19.1594 19.2208 19.75 17.5 19.75ZM17.5 35.5C15.0792 35.5 12.8042 35.0406 10.675 34.1219C8.54583 33.2031 6.69375 31.9562 5.11875 30.3813C3.54375 28.8062 2.29688 26.9542 1.37812 24.825C0.459375 22.6958 0 20.4208 0 18C0 15.5792 0.459375 13.3042 1.37812 11.175C2.29688 9.04583 3.54375 7.19375 5.11875 5.61875C6.69375 4.04375 8.54583 2.79688 10.675 1.87812C12.8042 0.959375 15.0792 0.5 17.5 0.5C19.9208 0.5 22.1958 0.959375 24.325 1.87812C26.4542 2.79688 28.3062 4.04375 29.8813 5.61875C31.4562 7.19375 32.7031 9.04583 33.6219 11.175C34.5406 13.3042 35 15.5792 35 18C35 20.4208 34.5406 22.6958 33.6219 24.825C32.7031 26.9542 31.4562 28.8062 29.8813 30.3813C28.3062 31.9562 26.4542 33.2031 24.325 34.1219C22.1958 35.0406 19.9208 35.5 17.5 35.5Z" fill="black"/>
</svg>
