<svg width="108" height="25" viewBox="0 0 108 25" fill="none" xmlns="http://www.w3.org/2000/svg">
    <g id="Porto_2022 1" clip-path="url(#clip0_430_1209)">
        <path id="Vector" fill-rule="evenodd" clip-rule="evenodd" d="M106.876 16.0469C106.876 21.2812 103.103 25.1094 97.8675 25.1094C92.555 25.1094 88.8594 21.2812 88.8594 16.0469C88.8594 10.8906 92.555 7.0625 97.8675 7.0625C103.103 7.0625 106.876 10.8906 106.876 16.0469ZM102.641 16.0469C102.641 12.9219 100.716 10.7344 97.8675 10.7344C95.0188 10.7344 93.094 12.9219 93.094 16.0469C93.094 19.25 95.0188 21.4375 97.8675 21.4375C100.716 21.4375 102.641 19.25 102.641 16.0469Z" fill="#0064FF"/>
        
        <path id="Vector_2" d="M82.7767 2.0625V7.29688H87.6273V10.8906H82.7767V18.3125C82.7767 20.0312 83.7007 20.9688 85.3175 20.9688H87.6273V24.7969H84.7786C81.0829 24.7969 78.6191 22.6094 78.6191 18.7031V2.0625H82.7767Z" fill="#0064FF"/>
        
        <path id="Vector_3" fill-rule="evenodd" clip-rule="evenodd" d="M64.528 16.0469C64.528 21.2812 60.7554 25.1094 55.5199 25.1094C50.2074 25.1094 46.5117 21.2812 46.5117 16.0469C46.5117 10.8906 50.2074 7.0625 55.5199 7.0625C60.7554 7.0625 64.528 10.8906 64.528 16.0469ZM60.2934 16.0469C60.2934 12.9219 58.3686 10.7344 55.5199 10.7344C52.6711 10.7344 50.7463 12.9219 50.7463 16.0469C50.7463 19.25 52.6711 21.4375 55.5199 21.4375C58.3686 21.4375 60.2934 19.25 60.2934 16.0469Z" fill="#0064FF"/>
        
        <path id="Vector_4" fill-rule="evenodd" clip-rule="evenodd" d="M46.3579 8.07812C46.3579 12.4531 43.3552 15.5781 38.4276 15.5781H33.3461V24.7969H28.7266V0.5H38.4276C43.3552 0.5 46.3579 3.625 46.3579 8.07812ZM41.9693 8.07812C41.9693 6.125 40.8914 4.32812 38.1967 4.32812H33.3461V11.75H38.1967C40.8914 11.75 41.9693 9.95312 41.9693 8.07812Z" fill="#0064FF"/>
        
        <path id="Vector_5" d="M66.377 24.7969V13.4688C66.377 9.5625 68.8407 7.29688 72.6134 7.29688H76.463V11.2031H73.0753C71.5355 11.2031 70.6116 12.0625 70.6116 13.8594V24.7969H66.377Z" fill="#0064FF"/>

        <path id="Vector_6" fill-rule="evenodd" clip-rule="evenodd" d="M24.2618 3.39062V21.9062C24.2618 23.5469 23.0299 24.7969 21.413 24.7969H3.39674C1.85688 24.7969 0.625 23.5469 0.625 21.9062V3.39062C0.625 1.82812 1.85688 0.5 3.39674 0.5H21.413C23.0299 0.5 24.2618 1.82812 24.2618 3.39062ZM6.93841 16.0469C6.88708 16.0469 6.86141 16.0729 6.86141 16.125C6.55344 19.0156 5.70652 21.0469 4.8596 22.2969C4.78261 22.375 4.93659 22.4531 5.01359 22.4531C20.7971 15.1094 19.0263 18.7031 16.8705 20.9688C16.7165 21.125 16.9475 21.2812 17.1014 21.2031C28.0344 12.1406 16.8705 11.9844 6.93841 16.0469ZM6.09149 6.90625C6.09149 6.98438 6.16848 6.98438 6.16848 6.98438C14.2527 5.34375 17.7174 7.21875 18.9493 8.39063C19.1033 8.46875 19.1803 8.3125 19.1803 8.23437C14.8687 2.76562 6.63043 2.92188 3.8587 2.92188C3.7817 2.92188 3.70471 3.07812 3.8587 3.15625C4.62862 3.70312 5.39855 4.875 6.09149 6.90625ZM21.798 13.4688C20.2582 6.67188 11.173 7.21875 6.70743 8.85938C6.6561 8.85938 6.63043 8.88542 6.63043 8.9375C6.86141 10.2656 7.0154 11.5938 7.0154 13.1563C7.0154 13.4167 7.0154 13.7031 7.0154 14.0156C7.0154 14.0156 7.0154 14.0938 7.09239 14.0938C12.5589 12.2969 19.4882 10.9688 21.644 13.5469C21.644 13.625 21.798 13.625 21.798 13.4688Z" fill="#0064FF"/>
    </g>
    <defs>
        <clipPath id="clip0_430_1209">
            <rect width="108" height="25" fill="white" transform="translate(0.625 0.5)"/>
        </clipPath>
    </defs>
</svg>
