<svg width="16" height="13" viewBox="0 0 16 13" fill="none" xmlns="http://www.w3.org/2000/svg">
<path id="Prosseguir" opacity="0.3" d="M12.6811 7.60608L12.9372 7.35001H12.575H1.42505C1.17949 7.35001 0.980763 7.26859 0.818615 7.10645C0.656467 6.9443 0.575049 6.74557 0.575049 6.50001C0.575049 6.25445 0.656467 6.05573 0.818615 5.89358C0.980763 5.73143 1.17949 5.65001 1.42505 5.65001H12.575H12.9372L12.6811 5.39395L9.83111 2.54395C9.65842 2.37125 9.58052 2.17726 9.58748 1.9547C9.59463 1.72565 9.67536 1.52722 9.83342 1.35378C10.0067 1.18148 10.2075 1.09455 10.4421 1.08744C10.6745 1.0804 10.8723 1.1594 11.044 1.33108L15.619 5.90608C15.7055 5.9926 15.7631 6.08249 15.7963 6.17546C15.8317 6.27474 15.85 6.38256 15.85 6.50001C15.85 6.61747 15.8317 6.72528 15.7963 6.82456C15.7631 6.91754 15.7055 7.00742 15.619 7.09395L11.044 11.6689C10.8723 11.8406 10.6745 11.9196 10.4421 11.9126C10.2075 11.9055 10.0067 11.8185 9.83342 11.6462C9.67536 11.4728 9.59463 11.2744 9.58748 11.0453C9.58052 10.8228 9.65842 10.6288 9.83111 10.4561L12.6811 7.60608Z" fill="black" stroke="#E0E0E0" stroke-width="0.3"/>
</svg>
